<svg width="98" height="98" viewBox="0 0 98 98" fill="none" xmlns="http://www.w3.org/2000/svg">
<rect width="98" height="98" fill="#6A008F"/>
<path d="M25.4725 67V62.1737H26.377L28.6113 63.7397H28.645L30.8793 62.1737H31.7837V67H30.7038V63.5237L29.1715 64.5497V67H28.0915V64.5497L26.5525 63.5237V67H25.4725ZM34.4108 67.0338C33.8078 67.0338 33.3376 66.8852 33.0001 66.5882C32.6626 66.2867 32.4938 65.8457 32.4938 65.2653C32.4938 64.6802 32.6626 64.2392 33.0001 63.9422C33.3376 63.6407 33.8078 63.49 34.4108 63.49H36.0983C36.4943 63.49 36.7958 63.5845 37.0028 63.7735C37.2143 63.958 37.3201 64.2235 37.3201 64.57C37.3201 65.2765 36.9128 65.6297 36.0983 65.6297H33.5468C33.6413 66.0482 33.9293 66.2575 34.4108 66.2575H37.1446V67.0338H34.4108ZM34.4108 64.2662C33.9473 64.2662 33.6616 64.462 33.5536 64.8535H36.0511C36.1411 64.8535 36.2108 64.8265 36.2603 64.7725C36.3143 64.7185 36.3413 64.6442 36.3413 64.5497C36.3413 64.3607 36.2446 64.2662 36.0511 64.2662H34.4108ZM37.8139 67.0338V66.2575H41.1214C41.3104 66.2575 41.4049 66.1517 41.4049 65.9402C41.4049 65.7332 41.3104 65.6297 41.1214 65.6297H38.9816C38.5811 65.6297 38.2774 65.5397 38.0704 65.3597C37.8634 65.1752 37.7599 64.912 37.7599 64.57C37.7599 64.2235 37.8634 63.958 38.0704 63.7735C38.2819 63.5845 38.5856 63.49 38.9816 63.49H42.0596V64.2662H39.0289C38.8354 64.2662 38.7386 64.3607 38.7386 64.5497C38.7386 64.6442 38.7656 64.7185 38.8196 64.7725C38.8736 64.8265 38.9434 64.8535 39.0289 64.8535H41.2969C41.6479 64.8535 41.9156 64.9457 42.1001 65.1302C42.2891 65.3102 42.3836 65.5735 42.3836 65.92C42.3836 66.271 42.2891 66.5455 42.1001 66.7435C41.9111 66.937 41.6434 67.0338 41.2969 67.0338H37.8139ZM42.8434 67.0338V66.2575H46.1509C46.3399 66.2575 46.4344 66.1517 46.4344 65.9402C46.4344 65.7332 46.3399 65.6297 46.1509 65.6297H44.0112C43.6107 65.6297 43.3069 65.5397 43.0999 65.3597C42.8929 65.1752 42.7894 64.912 42.7894 64.57C42.7894 64.2235 42.8929 63.958 43.0999 63.7735C43.3114 63.5845 43.6152 63.49 44.0112 63.49H47.0892V64.2662H44.0584C43.8649 64.2662 43.7682 64.3607 43.7682 64.5497C43.7682 64.6442 43.7952 64.7185 43.8492 64.7725C43.9032 64.8265 43.9729 64.8535 44.0584 64.8535H46.3264C46.6774 64.8535 46.9452 64.9457 47.1297 65.1302C47.3187 65.3102 47.4132 65.5735 47.4132 65.92C47.4132 66.271 47.3187 66.5455 47.1297 66.7435C46.9407 66.937 46.6729 67.0338 46.3264 67.0338H42.8434Z" fill="white"/>
<path d="M50.4488 67V62.1737H51.3533L53.5876 63.7397H53.6213L55.8556 62.1737H56.7601V67H55.6801V63.5237L54.1478 64.5497V67H53.0678V64.5497L51.5288 63.5237V67H50.4488ZM58.5299 67C58.1654 67 57.8864 66.9077 57.6929 66.7232C57.4994 66.5387 57.4026 66.2755 57.4026 65.9335C57.4026 65.596 57.4994 65.335 57.6929 65.1505C57.8864 64.966 58.1654 64.8737 58.5299 64.8737H61.1219V64.7117C61.1219 64.4372 60.9869 64.3 60.7169 64.3H57.8549V63.5237H60.9734C61.3829 63.5237 61.6731 63.6182 61.8441 63.8072C62.0151 63.9917 62.1006 64.2527 62.1006 64.5902V67H58.5299ZM58.7054 66.2237H61.1219V65.65H58.7054C58.6199 65.65 58.5524 65.677 58.5029 65.731C58.4579 65.7805 58.4354 65.848 58.4354 65.9335C58.4354 66.019 58.4579 66.0887 58.5029 66.1427C58.5524 66.1967 58.6199 66.2237 58.7054 66.2237ZM64.6546 67C64.2631 67 63.9751 66.9032 63.7906 66.7097C63.6061 66.5117 63.5139 66.253 63.5139 65.9335V64.3H62.5081V63.5237H63.5139V62.4572H64.4926V63.5237H65.9371V64.3H64.4926V65.812C64.4926 66.0865 64.6276 66.2237 64.8976 66.2237H66.1261V67H64.6546ZM68.4113 67.0338C67.8083 67.0338 67.3381 66.8852 67.0006 66.5882C66.6631 66.2867 66.4943 65.8457 66.4943 65.2653C66.4943 64.6802 66.6631 64.2392 67.0006 63.9422C67.3381 63.6407 67.8083 63.49 68.4113 63.49H70.0988C70.4948 63.49 70.7963 63.5845 71.0033 63.7735C71.2148 63.958 71.3206 64.2235 71.3206 64.57C71.3206 65.2765 70.9133 65.6297 70.0988 65.6297H67.5473C67.6418 66.0482 67.9298 66.2575 68.4113 66.2575H71.1451V67.0338H68.4113ZM68.4113 64.2662C67.9478 64.2662 67.6621 64.462 67.5541 64.8535H70.0516C70.1416 64.8535 70.2113 64.8265 70.2608 64.7725C70.3148 64.7185 70.3418 64.6442 70.3418 64.5497C70.3418 64.3607 70.2451 64.2662 70.0516 64.2662H68.4113Z" fill="#EE2DF2"/>
<path d="M35 61V37L49 46L63 37L63 46.5L63 61" stroke="white" stroke-width="9"/>
<path d="M44 61V54L49 57L54 54V61" stroke="#EE2DF2" stroke-width="4"/>
</svg>
