<svg width="47" height="42" viewBox="0 0 47 42" fill="none" xmlns="http://www.w3.org/2000/svg">
<path d="M0.4725 40V35.1737H1.377L3.61125 36.7397H3.645L5.87925 35.1737H6.78375V40H5.70375V36.5237L4.1715 37.5497V40H3.0915V37.5497L1.5525 36.5237V40H0.4725ZM9.41082 40.0338C8.80782 40.0338 8.33757 39.8852 8.00007 39.5882C7.66257 39.2867 7.49382 38.8457 7.49382 38.2653C7.49382 37.6802 7.66257 37.2392 8.00007 36.9422C8.33757 36.6407 8.80782 36.49 9.41082 36.49H11.0983C11.4943 36.49 11.7958 36.5845 12.0028 36.7735C12.2143 36.958 12.3201 37.2235 12.3201 37.57C12.3201 38.2765 11.9128 38.6297 11.0983 38.6297H8.54682C8.64132 39.0482 8.92932 39.2575 9.41082 39.2575H12.1446V40.0338H9.41082ZM9.41082 37.2662C8.94732 37.2662 8.66157 37.462 8.55357 37.8535H11.0511C11.1411 37.8535 11.2108 37.8265 11.2603 37.7725C11.3143 37.7185 11.3413 37.6442 11.3413 37.5497C11.3413 37.3607 11.2446 37.2662 11.0511 37.2662H9.41082ZM12.8139 40.0338V39.2575H16.1214C16.3104 39.2575 16.4049 39.1517 16.4049 38.9402C16.4049 38.7332 16.3104 38.6297 16.1214 38.6297H13.9816C13.5811 38.6297 13.2774 38.5397 13.0704 38.3597C12.8634 38.1752 12.7599 37.912 12.7599 37.57C12.7599 37.2235 12.8634 36.958 13.0704 36.7735C13.2819 36.5845 13.5856 36.49 13.9816 36.49H17.0596V37.2662H14.0289C13.8354 37.2662 13.7386 37.3607 13.7386 37.5497C13.7386 37.6442 13.7656 37.7185 13.8196 37.7725C13.8736 37.8265 13.9434 37.8535 14.0289 37.8535H16.2969C16.6479 37.8535 16.9156 37.9457 17.1001 38.1302C17.2891 38.3102 17.3836 38.5735 17.3836 38.92C17.3836 39.271 17.2891 39.5455 17.1001 39.7435C16.9111 39.937 16.6434 40.0338 16.2969 40.0338H12.8139ZM17.8434 40.0338V39.2575H21.1509C21.3399 39.2575 21.4344 39.1517 21.4344 38.9402C21.4344 38.7332 21.3399 38.6297 21.1509 38.6297H19.0112C18.6107 38.6297 18.3069 38.5397 18.0999 38.3597C17.8929 38.1752 17.7894 37.912 17.7894 37.57C17.7894 37.2235 17.8929 36.958 18.0999 36.7735C18.3114 36.5845 18.6152 36.49 19.0112 36.49H22.0892V37.2662H19.0584C18.8649 37.2662 18.7682 37.3607 18.7682 37.5497C18.7682 37.6442 18.7952 37.7185 18.8492 37.7725C18.9032 37.8265 18.9729 37.8535 19.0584 37.8535H21.3264C21.6774 37.8535 21.9452 37.9457 22.1297 38.1302C22.3187 38.3102 22.4132 38.5735 22.4132 38.92C22.4132 39.271 22.3187 39.5455 22.1297 39.7435C21.9407 39.937 21.6729 40.0338 21.3264 40.0338H17.8434Z" fill="white"/>
<path d="M25.4488 40V35.1737H26.3533L28.5876 36.7397H28.6213L30.8556 35.1737H31.7601V40H30.6801V36.5237L29.1478 37.5497V40H28.0678V37.5497L26.5288 36.5237V40H25.4488ZM33.5299 40C33.1654 40 32.8864 39.9077 32.6929 39.7232C32.4994 39.5387 32.4026 39.2755 32.4026 38.9335C32.4026 38.596 32.4994 38.335 32.6929 38.1505C32.8864 37.966 33.1654 37.8737 33.5299 37.8737H36.1219V37.7117C36.1219 37.4372 35.9869 37.3 35.7169 37.3H32.8549V36.5237H35.9734C36.3829 36.5237 36.6731 36.6182 36.8441 36.8072C37.0151 36.9917 37.1006 37.2527 37.1006 37.5902V40H33.5299ZM33.7054 39.2237H36.1219V38.65H33.7054C33.6199 38.65 33.5524 38.677 33.5029 38.731C33.4579 38.7805 33.4354 38.848 33.4354 38.9335C33.4354 39.019 33.4579 39.0887 33.5029 39.1427C33.5524 39.1967 33.6199 39.2237 33.7054 39.2237ZM39.6546 40C39.2631 40 38.9751 39.9032 38.7906 39.7097C38.6061 39.5117 38.5139 39.253 38.5139 38.9335V37.3H37.5081V36.5237H38.5139V35.4572H39.4926V36.5237H40.9371V37.3H39.4926V38.812C39.4926 39.0865 39.6276 39.2237 39.8976 39.2237H41.1261V40H39.6546ZM43.4113 40.0338C42.8083 40.0338 42.3381 39.8852 42.0006 39.5882C41.6631 39.2867 41.4943 38.8457 41.4943 38.2653C41.4943 37.6802 41.6631 37.2392 42.0006 36.9422C42.3381 36.6407 42.8083 36.49 43.4113 36.49H45.0988C45.4948 36.49 45.7963 36.5845 46.0033 36.7735C46.2148 36.958 46.3206 37.2235 46.3206 37.57C46.3206 38.2765 45.9133 38.6297 45.0988 38.6297H42.5473C42.6418 39.0482 42.9298 39.2575 43.4113 39.2575H46.1451V40.0338H43.4113ZM43.4113 37.2662C42.9478 37.2662 42.6621 37.462 42.5541 37.8535H45.0516C45.1416 37.8535 45.2113 37.8265 45.2608 37.7725C45.3148 37.7185 45.3418 37.6442 45.3418 37.5497C45.3418 37.3607 45.2451 37.2662 45.0516 37.2662H43.4113Z" fill="#EE2DF2"/>
<path d="M10 33V9L24 18L38 9L38 18.5L38 33" stroke="white" stroke-width="9"/>
<path d="M19 33V26L24 29L29 26V33" stroke="#EE2DF2" stroke-width="4"/>
</svg>
